<svg xmlns="http://www.w3.org/2000/svg" width="440" height="440" viewBox="0 0 330 330">
    <path d="M34.4 18c-12.6 1.9-24 10.4-29 21.3-5.3 11.8-3.1 27.9 5.1 37.4C21 89 41.3 93.4 58.2 87c21.2-8 29.2-34.8 16-53.9-8-11.7-23.7-17.6-39.8-15.1zM228.5 113.5c-17 3.1-30 11.2-41.6 25.8l-3.9 4.9V117h-70v208h69.9l.3-64.8.3-64.7 3.3-6.7c6.5-13.3 18.5-20.9 33-20.9 13.9 0 22.6 5.1 28.2 16.5 5.6 11.3 5.9 16 6 81.3V325h70v-62.3c0-34.2-.5-66.7-1-72.2-2.5-26-12.8-48.3-28.1-61.4-16.2-13.8-42.6-20-66.4-15.6zM6.2 220.7l.3 103.8 34.7.3 34.8.2V117H6l.2 103.7z"/>
</svg>



