<svg viewBox="0 0 206 237" xmlns="http://www.w3.org/2000/svg" class="duck-rabbit-icon">
    <path d="M199.7512 56.3628c-14.7326-26.4428-51.4318-38.4404-85.3773-27.9044C93.9632 34.793 71.5724 22.0287 53.585 11.77 46.2655 7.5987 39.947 3.9944 34.2054 1.9136 21.7227-2.609 14.7598 1.733 11.1152 6.1744c-3.566 4.3462-4.808 9.75-3.4986 15.22.493 2.0642 1.3053 5.4562 5.5378 10.3333-5.352 1.5223-9.0736 4.5848-11.3812 9.171-2.1012 4.178-2.3435 8.7462-.6816 12.8608 3.456 8.5559 13.0073 11.8914 26.228 16.5093 18.1638 6.3428 43.0384 15.0284 49.7245 37.2104 7.8468 26.0305-8.403 66.6619-48.2704 120.82-.029.04-.0565.0773-.084.1145-.5838.877-.9267 1.925-.9267 3.0556 0 3.0542 2.4825 5.5307 5.5433 5.5307 1.6399 0 3.0966-.724 4.1128-1.8546.2092-.284.4213-.5708.6292-.8549C173.4625 49.8159-.3913 69.7172 11.6095 45.8626c5.6411-11.2103 43.1141 2.2131 63.3156 10.3526C53.2214 46.7065 9.4947 25.527 19.6257 13.1777 30.4452-.0085 74.775 52.2965 117.6344 38.9944c55.426-17.2001 109.4491 34.6981 54.0836 83.0595-38.3749 33.5192-31.7466 65.3933-15.6427 92.1463.124.2372.2548.4689.4117.684 1.0038 1.3844 2.623 2.2944 4.4625 2.2944 3.0539 0 5.5268-2.4778 5.5268-5.5362 0-1.063-.314-2.049-.833-2.8915-.0565-.0924-.1074-.1848-.168-.273-16.0682-26.5351-17.6777-50.8944 13.4823-78.1107 26.1235-22.819 33.8973-50.4835 20.7936-74.0044M137 61c-3.8656 0-7 3.8057-7 8.4993 0 4.695 3.1344 8.5007 7 8.5007s7-3.8057 7-8.5007C144 64.8057 140.8656 61 137 61" fill="currentColor" fill-rule="evenodd"></path>
</svg>